<svg version="1.1" xmlns="http://www.w3.org/2000/svg" xmlns:xlink="http://www.w3.org/1999/xlink" width="606.03676" height="388" viewBox="0,0,606.03676,388"><defs><radialGradient cx="21" cy="138" r="84.51838" gradientUnits="userSpaceOnUse" id="color-1"><stop offset="0" stop-color="#00d8ff"/><stop offset="1" stop-color="#00d8ff" stop-opacity="0"/></radialGradient><radialGradient cx="458" cy="253" r="84.51838" gradientUnits="userSpaceOnUse" id="color-2"><stop offset="0" stop-color="#00d8ff"/><stop offset="1" stop-color="#00d8ff" stop-opacity="0"/></radialGradient><radialGradient cx="213" cy="210" r="43.76838" gradientUnits="userSpaceOnUse" id="color-3"><stop offset="0" stop-color="#00ceff"/><stop offset="1" stop-color="#00ceff" stop-opacity="0"/></radialGradient></defs><g transform="translate(63.51838,14)"><g data-paper-data="{&quot;isPaintingLayer&quot;:true}" fill-rule="nonzero" stroke-linejoin="miter" stroke-miterlimit="10" stroke-dasharray="" stroke-dashoffset="0" style="mix-blend-mode: normal"><path d="M-11,370.5v-381h502v381z" fill="#000000" stroke="none" stroke-width="0" stroke-linecap="butt"/><path d="M240,-9v378" fill="none" stroke="#ffffff" stroke-width="10" stroke-linecap="round"/><path d="M198.5,180c0,-22.91982 18.58018,-41.5 41.5,-41.5c22.91982,0 41.5,18.58018 41.5,41.5c0,22.91982 -18.58018,41.5 -41.5,41.5c-22.91982,0 -41.5,-18.58018 -41.5,-41.5z" fill="none" stroke="#ffffff" stroke-width="10" stroke-linecap="butt"/><g stroke="none" stroke-width="0" stroke-linecap="butt"><path d="M-63.51838,222.51838v-169.03676h169.03676v169.03676z" fill="url(#color-1)"/><path d="M10.82472,181.24492v-86.48984h20.35055v86.48984z" fill="#ffffff"/></g><g stroke="none" stroke-width="0" stroke-linecap="butt"><path d="M373.48162,337.51838v-169.03676h169.03676v169.03676z" fill="url(#color-2)"/><path d="M447.82473,296.24492v-86.48984h20.35055v86.48984z" fill="#ffffff"/></g><g stroke-width="0" stroke-linecap="butt"><path d="M169.23162,253.76838v-87.53676h87.53676v87.53676z" fill="url(#color-3)" stroke="none"/><path d="M194.76,210c0,-10.07367 8.16633,-18.24 18.24,-18.24c10.07367,0 18.24,8.16633 18.24,18.24c0,10.07367 -8.16633,18.24 -18.24,18.24c-10.07367,0 -18.24,-8.16633 -18.24,-18.24z" fill="#ffffff" stroke="#000000"/></g><text transform="translate(60.33985,98.28052) scale(1.66494,1.66494)" font-size="40" xml:space="preserve" fill="#ffffff" fill-rule="nonzero" stroke="#ffffff" stroke-width="3" stroke-linecap="butt" stroke-linejoin="miter" stroke-miterlimit="10" stroke-dasharray="" stroke-dashoffset="0" font-family="Courier New" font-weight="normal" text-anchor="start" style="mix-blend-mode: normal"><tspan x="0" dy="0">Neon Table</tspan></text><path d="M166,41.5v-37h146v37z" fill="none" stroke="#ffffff" stroke-width="7.5" stroke-linecap="butt"/><path d="M240,6v32" fill="none" stroke="#ffffff" stroke-width="7.5" stroke-linecap="round"/></g></g></svg>